<svg xmlns="http://www.w3.org/2000/svg" viewBox="0 0 400 225">
  <defs>
    <linearGradient id="bg" x1="0%" y1="0%" x2="100%" y2="100%">
      <stop offset="0%" style="stop-color:#9b7fe6;stop-opacity:1" />
      <stop offset="100%" style="stop-color:#7454d6;stop-opacity:1" />
    </linearGradient>
  </defs>
  <rect width="400" height="225" fill="url(#bg)"/>
  <!-- Cloud shape -->
  <path d="M180 150 Q180 120 210 120 Q230 120 240 140 Q260 130 280 140 Q310 140 310 170 Q310 190 280 190 L220 190 Q180 190 180 170 Z" fill="white" opacity="0.2"/>
  <!-- Factory/Gear icon -->
  <rect x="175" y="75" width="70" height="50" rx="4" stroke="white" stroke-width="3" fill="none"/>
  <rect x="185" y="85" width="15" height="15" fill="white" opacity="0.7"/>
  <rect x="210" y="85" width="15" height="15" fill="white" opacity="0.7"/>
  <rect x="185" y="105" width="40" height="10" fill="white" opacity="0.7"/>
  <circle cx="245" cy="65" r="18" stroke="white" stroke-width="3" fill="none"/>
  <circle cx="245" cy="65" r="8" stroke="white" stroke-width="2" fill="none"/>
  <!-- Salesforce text -->
  <text x="200" y="175" font-family="Arial, sans-serif" font-size="14" fill="white" text-anchor="middle" font-weight="bold">Salesforce</text>
  <text x="200" y="195" font-family="Arial, sans-serif" font-size="20" fill="white" text-anchor="middle" font-weight="bold">Manufacturing Cloud</text>
</svg>