<svg xmlns="http://www.w3.org/2000/svg" viewBox="0 0 400 225">
  <defs>
    <linearGradient id="bg" x1="0%" y1="0%" x2="100%" y2="100%">
      <stop offset="0%" style="stop-color:#ffb75e;stop-opacity:1" />
      <stop offset="100%" style="stop-color:#ed8f00;stop-opacity:1" />
    </linearGradient>
  </defs>
  <rect width="400" height="225" fill="url(#bg)"/>
  <!-- Cloud shape -->
  <path d="M180 150 Q180 120 210 120 Q230 120 240 140 Q260 130 280 140 Q310 140 310 170 Q310 190 280 190 L220 190 Q180 190 180 170 Z" fill="white" opacity="0.2"/>
  <!-- Wrench/Tool icon -->
  <path d="M195 70 L205 80 L215 70 L215 60 L205 70 L195 60 Z" fill="white"/>
  <circle cx="210" cy="90" r="25" stroke="white" stroke-width="4" fill="none"/>
  <rect x="225" y="95" width="30" height="8" rx="2" fill="white" transform="rotate(45 225 95)"/>
  <!-- Salesforce text -->
  <text x="200" y="175" font-family="Arial, sans-serif" font-size="14" fill="white" text-anchor="middle" font-weight="bold">Salesforce</text>
  <text x="200" y="195" font-family="Arial, sans-serif" font-size="20" fill="white" text-anchor="middle" font-weight="bold">Field Service</text>
</svg>