<svg xmlns="http://www.w3.org/2000/svg" viewBox="0 0 400 225">
  <defs>
    <linearGradient id="bg" x1="0%" y1="0%" x2="100%" y2="100%">
      <stop offset="0%" style="stop-color:#ffb75e;stop-opacity:1" />
      <stop offset="100%" style="stop-color:#ed8f00;stop-opacity:1" />
    </linearGradient>
  </defs>
  <rect width="400" height="225" fill="url(#bg)"/>
  <!-- Cloud shape -->
  <path d="M180 150 Q180 120 210 120 Q230 120 240 140 Q260 130 280 140 Q310 140 310 170 Q310 190 280 190 L220 190 Q180 190 180 170 Z" fill="white" opacity="0.2"/>
  <!-- Flow nodes -->
  <circle cx="160" cy="85" r="20" stroke="white" stroke-width="3" fill="none"/>
  <text x="160" y="90" font-family="Arial" font-size="12" fill="white" text-anchor="middle">1</text>
  <circle cx="240" cy="85" r="20" stroke="white" stroke-width="3" fill="none"/>
  <text x="240" y="90" font-family="Arial" font-size="12" fill="white" text-anchor="middle">2</text>
  <circle cx="200" cy="130" r="20" stroke="white" stroke-width="3" fill="none"/>
  <text x="200" y="135" font-family="Arial" font-size="12" fill="white" text-anchor="middle">3</text>
  <path d="M175 85 L220 85" stroke="white" stroke-width="2" stroke-dasharray="4"/>
  <path d="M180 65 L200 55 L220 65" stroke="white" stroke-width="2" fill="none"/>
  <path d="M200 110 L200 110" stroke="white" stroke-width="2"/>
  <path d="M200 150 L200 150" stroke="white" stroke-width="2"/>
  <!-- Salesforce text -->
  <text x="200" y="175" font-family="Arial, sans-serif" font-size="14" fill="white" text-anchor="middle" font-weight="bold">Salesforce</text>
  <text x="200" y="195" font-family="Arial, sans-serif" font-size="20" fill="white" text-anchor="middle" font-weight="bold">Flow Builder</text>
</svg>