<svg xmlns="http://www.w3.org/2000/svg" viewBox="0 0 400 225">
  <defs>
    <linearGradient id="bg" x1="0%" y1="0%" x2="100%" y2="100%">
      <stop offset="0%" style="stop-color:#34c759;stop-opacity:1" />
      <stop offset="100%" style="stop-color:#248a3d;stop-opacity:1" />
    </linearGradient>
  </defs>
  <rect width="400" height="225" fill="url(#bg)"/>
  <!-- Cloud shape -->
  <path d="M180 150 Q180 120 210 120 Q230 120 240 140 Q260 130 280 140 Q310 140 310 170 Q310 190 280 190 L220 190 Q180 190 180 170 Z" fill="white" opacity="0.2"/>
  <!-- Integration nodes -->
  <rect x="140" y="70" width="45" height="35" rx="4" stroke="white" stroke-width="3" fill="none"/>
  <rect x="177" y="70" width="45" height="35" rx="4" stroke="white" stroke-width="3" fill="none"/>
  <rect x="215" y="70" width="45" height="35" rx="4" stroke="white" stroke-width="3" fill="none"/>
  <rect x="177" y="115" width="45" height="35" rx="4" stroke="white" stroke-width="3" fill="none"/>
  <path d="M162 90 L177 90" stroke="white" stroke-width="2"/>
  <path d="M222 90 L237 90" stroke="white" stroke-width="2"/>
  <path d="M190 90 L190 115" stroke="white" stroke-width="2"/>
  <circle cx="155" cy="87" r="4" fill="white"/>
  <circle cx="200" cy="87" r="4" fill="white"/>
  <circle cx="240" cy="87" r="4" fill="white"/>
  <circle cx="200" cy="132" r="4" fill="white"/>
  <!-- Salesforce text -->
  <text x="200" y="175" font-family="Arial, sans-serif" font-size="14" fill="white" text-anchor="middle" font-weight="bold">Salesforce</text>
  <text x="200" y="195" font-family="Arial, sans-serif" font-size="20" fill="white" text-anchor="middle" font-weight="bold">Integration</text>
</svg>