<svg xmlns="http://www.w3.org/2000/svg" viewBox="0 0 400 225">
  <defs>
    <linearGradient id="bg" x1="0%" y1="0%" x2="100%" y2="100%">
      <stop offset="0%" style="stop-color:#34c759;stop-opacity:1" />
      <stop offset="100%" style="stop-color:#248a3d;stop-opacity:1" />
    </linearGradient>
  </defs>
  <rect width="400" height="225" fill="url(#bg)"/>
  <!-- Cloud shape -->
  <path d="M180 150 Q180 120 210 120 Q230 120 240 140 Q260 130 280 140 Q310 140 310 170 Q310 190 280 190 L220 190 Q180 190 180 170 Z" fill="white" opacity="0.2"/>
  <!-- Building/Finance icon -->
  <rect x="175" y="60" width="70" height="70" rx="4" stroke="white" stroke-width="3" fill="none"/>
  <rect x="185" y="70" width="20" height="25" fill="white" opacity="0.6"/>
  <rect x="210" y="70" width="20" height="25" fill="white" opacity="0.6"/>
  <rect x="185" y="100" width="20" height="25" fill="white" opacity="0.6"/>
  <rect x="210" y="100" width="20" height="25" fill="white" opacity="0.6"/>
  <path d="M190 75 L195 70 L200 75" stroke="white" stroke-width="2" fill="none"/>
  <path d="M215 75 L220 70 L225 75" stroke="white" stroke-width="2" fill="none"/>
  <!-- Salesforce text -->
  <text x="200" y="175" font-family="Arial, sans-serif" font-size="14" fill="white" text-anchor="middle" font-weight="bold">Salesforce</text>
  <text x="200" y="195" font-family="Arial, sans-serif" font-size="20" fill="white" text-anchor="middle" font-weight="bold">Financial Services Cloud</text>
</svg>